<svg version="1.2" xmlns="http://www.w3.org/2000/svg" viewBox="0 0 50 50" width="50" height="50">
	<style>
		.s0 { fill: none;stroke: #000000;stroke-linecap: round;stroke-linejoin: round;stroke-width: 3.1 } 
	</style>
	<path class="s0" d="m7.81 20.7v23.05q0 0.31 0.12 0.6 0.12 0.28 0.34 0.5 0.22 0.22 0.51 0.34 0.28 0.12 0.6 0.12h9.37v-13.28q0-0.46 0.18-0.9 0.18-0.43 0.51-0.76 0.33-0.32 0.76-0.5 0.43-0.18 0.89-0.18h7.82q0.46 0 0.89 0.18 0.43 0.18 0.76 0.5 0.33 0.33 0.51 0.76 0.18 0.44 0.18 0.9v13.28h9.38q0.31 0 0.59-0.12 0.29-0.12 0.51-0.34 0.22-0.22 0.34-0.5 0.12-0.29 0.12-0.6v-23.05"/>
	<path class="s0" d="m46.88 25l-20.82-19.92c-0.48-0.52-1.63-0.52-2.12 0l-20.82 19.92m35.94-7.52v-11.23h-4.68v6.74"/>
</svg>