<svg version="1.2" xmlns="http://www.w3.org/2000/svg" viewBox="0 0 30 30" width="30" height="30">
	<style>
		.s0 { fill: #000000 } 
	</style>
	<path class="s0" d="m24.06 10.59q-0.45-0.15-0.9-0.29 0.07-0.3 0.14-0.62c0.68-3.33 0.23-6.02-1.3-6.9-1.46-0.85-3.86 0.04-6.29 2.15q-0.35 0.31-0.7 0.64-0.23-0.22-0.47-0.43c-2.54-2.26-5.08-3.21-6.61-2.32-1.46 0.85-1.9 3.37-1.28 6.53q0.09 0.47 0.2 0.94-0.13 0.03-0.26 0.07-0.13 0.04-0.26 0.08-0.13 0.04-0.26 0.09-0.13 0.04-0.26 0.08c-2.97 1.04-4.87 2.67-4.87 4.37 0 1.74 2.04 3.5 5.14 4.56q0.38 0.13 0.76 0.24-0.12 0.49-0.22 1c-0.58 3.11-0.13 5.57 1.33 6.42 1.51 0.87 4.05-0.03 6.52-2.19q0.29-0.26 0.58-0.54 0.37 0.36 0.76 0.69c2.39 2.07 4.76 2.9 6.21 2.05 1.51-0.87 2-3.52 1.37-6.74q-0.08-0.37-0.17-0.76 0.27-0.08 0.52-0.16c3.22-1.07 5.32-2.8 5.32-4.57 0-1.7-1.96-3.34-5-4.39zm-7.56-4.75c2.08-1.81 4.02-2.53 4.9-2.02 0.95 0.55 1.31 2.74 0.72 5.62q-0.06 0.28-0.13 0.56-0.46-0.1-0.93-0.19-0.47-0.09-0.94-0.17-0.47-0.07-0.94-0.13-0.47-0.06-0.95-0.1-0.27-0.39-0.55-0.78-0.29-0.38-0.58-0.75-0.3-0.37-0.61-0.73-0.31-0.37-0.63-0.72 0.31-0.3 0.64-0.59zm-7.26 10.58q0.38 0.74 0.8 1.46 0.42 0.73 0.88 1.45-0.33-0.04-0.65-0.08-0.33-0.05-0.65-0.1-0.32-0.05-0.65-0.11-0.32-0.06-0.64-0.13 0.37-1.21 0.91-2.49zm0-2.83q-0.53-1.25-0.89-2.44 1.21-0.27 2.55-0.44-0.45 0.7-0.87 1.42-0.41 0.72-0.79 1.46zm0.64 1.42q0.55-1.16 1.19-2.28 0.64-1.11 1.37-2.17 1.26-0.1 2.56-0.1 1.3 0 2.56 0.1 0.72 1.06 1.36 2.17 0.64 1.1 1.21 2.26-0.56 1.16-1.21 2.28-0.64 1.11-1.34 2.18-1.26 0.09-2.58 0.09-1.32 0-2.55-0.08-0.73-1.06-1.37-2.18-0.65-1.12-1.2-2.27zm10.08 2.86q0.43-0.74 0.82-1.49 0.13 0.3 0.26 0.61 0.12 0.31 0.24 0.62 0.12 0.31 0.23 0.62 0.11 0.31 0.21 0.63-0.32 0.07-0.65 0.13-0.33 0.07-0.66 0.13-0.32 0.05-0.65 0.1-0.33 0.05-0.66 0.09 0.44-0.71 0.86-1.44zm0.81-4.28q-0.39-0.74-0.81-1.47-0.41-0.71-0.86-1.4 1.35 0.17 2.57 0.44-0.1 0.31-0.21 0.62-0.1 0.31-0.21 0.61-0.12 0.3-0.24 0.6-0.12 0.3-0.24 0.6zm-5.76-6.3q0.22 0.24 0.43 0.49 0.21 0.24 0.42 0.49 0.21 0.25 0.41 0.51 0.2 0.26 0.39 0.52-1.66-0.08-3.32 0 0.82-1.09 1.67-2.01zm-6.48-3.43c0.94-0.55 3.02 0.23 5.21 2.18q0.22 0.19 0.43 0.39-0.33 0.35-0.64 0.72-0.31 0.36-0.61 0.73-0.3 0.37-0.59 0.75-0.28 0.38-0.56 0.77-0.47 0.05-0.94 0.11-0.47 0.05-0.94 0.13-0.47 0.07-0.94 0.16-0.47 0.09-0.93 0.19-0.11-0.43-0.19-0.87c-0.53-2.71-0.18-4.75 0.7-5.26zm-1.37 14.76q-0.35-0.1-0.7-0.22c-1.37-0.47-2.5-1.08-3.28-1.75-0.69-0.6-1.05-1.19-1.05-1.67 0-1.03 1.53-2.34 4.08-3.23q0.48-0.16 0.97-0.3 0.14 0.45 0.29 0.9 0.16 0.46 0.33 0.9 0.17 0.45 0.36 0.89 0.19 0.43 0.39 0.87-0.21 0.44-0.39 0.88-0.19 0.45-0.37 0.9-0.17 0.45-0.33 0.91-0.16 0.45-0.3 0.92zm6.51 5.48c-1.09 0.96-2.19 1.64-3.15 1.98-0.86 0.31-1.55 0.32-1.97 0.07-0.89-0.51-1.26-2.49-0.75-5.14q0.09-0.47 0.2-0.94 0.47 0.1 0.94 0.18 0.47 0.09 0.95 0.16 0.47 0.07 0.95 0.12 0.47 0.05 0.95 0.09 0.28 0.39 0.57 0.78 0.29 0.38 0.59 0.75 0.3 0.38 0.62 0.74 0.31 0.36 0.64 0.72-0.27 0.25-0.54 0.49zm1.37-1.36q-0.86-0.92-1.69-2.03 0.81 0.04 1.65 0.04 0.86 0 1.69-0.04-0.19 0.26-0.39 0.52-0.2 0.26-0.41 0.52-0.2 0.25-0.42 0.5-0.21 0.25-0.43 0.49zm7.3 1.68c-0.17 0.9-0.51 1.51-0.92 1.75-0.89 0.51-2.78-0.16-4.83-1.92q-0.35-0.3-0.71-0.64 0.32-0.36 0.63-0.72 0.31-0.37 0.6-0.74 0.3-0.38 0.58-0.76 0.28-0.39 0.55-0.78 0.48-0.04 0.96-0.1 0.48-0.06 0.96-0.13 0.47-0.08 0.95-0.17 0.47-0.09 0.94-0.19 0.09 0.35 0.15 0.68c0.28 1.42 0.32 2.71 0.14 3.72zm1.02-6.02q-0.23 0.08-0.47 0.15-0.15-0.45-0.31-0.91-0.17-0.45-0.35-0.9-0.17-0.44-0.37-0.88-0.19-0.44-0.4-0.88 0.2-0.43 0.39-0.86 0.18-0.43 0.35-0.87 0.18-0.44 0.33-0.89 0.16-0.45 0.3-0.9 0.43 0.13 0.84 0.27c2.6 0.9 4.19 2.22 4.19 3.25 0 1.09-1.72 2.5-4.5 3.42z"/>
	<path class="s0" d="m15 17.49c1.02 0.01 1.94-0.61 2.33-1.55 0.4-0.94 0.18-2.02-0.54-2.75-0.72-0.72-1.8-0.93-2.74-0.54-0.95 0.38-1.56 1.3-1.56 2.32q0 0.5 0.19 0.97 0.19 0.46 0.54 0.81 0.36 0.36 0.82 0.55 0.46 0.19 0.96 0.19z"/>
</svg>