<svg version="1.2" xmlns="http://www.w3.org/2000/svg" viewBox="0 0 30 30" width="30" height="30">
	<style>
		.s0 { fill: #000000 } 
	</style>
	<path class="s0" d="m18.4 2.13c-1.09-0.18-2.69-0.26-3.77-0.25q-0.38 0-0.76 0.01-0.38 0.02-0.76 0.05-0.38 0.03-0.75 0.08-0.38 0.05-0.75 0.11c-2.68 0.47-3.17 1.45-3.17 3.26v2.11h6.56v0.94h-8.69c-2.44 0-4.42 2.91-4.43 6.51v0.05q-0.01 0.24 0.01 0.47 0.01 0.24 0.03 0.47 0.02 0.24 0.06 0.47 0.03 0.23 0.08 0.47c0.54 2.71 2.24 4.68 4.25 4.68h1.19v-3.16c0-1.84 1.22-3.51 3.22-3.87l0.58-0.08h7.1q0.11 0 0.22 0 0.11-0.01 0.22-0.03 0.11-0.01 0.22-0.03 0.11-0.02 0.22-0.05 0.49-0.14 0.92-0.42 0.42-0.28 0.73-0.69 0.31-0.4 0.47-0.89 0.16-0.48 0.16-0.99v-5.96c0-1.7-1.44-2.98-3.16-3.26zm-6.98 4.05c-0.48 0-0.92-0.29-1.1-0.73-0.19-0.45-0.09-0.96 0.25-1.31 0.35-0.34 0.86-0.44 1.31-0.25 0.44 0.18 0.73 0.62 0.73 1.1q0 0.24-0.09 0.46-0.09 0.22-0.26 0.38-0.16 0.17-0.38 0.26-0.22 0.09-0.46 0.09z"/>
	<path class="s0" d="m27.85 12.71c-0.63-2.49-2.25-4.27-4.16-4.27h-1.03v2.78c0 2.32-1.53 4-3.39 4.28q-0.07 0.01-0.14 0.02-0.07 0.01-0.14 0.02-0.07 0-0.14 0-0.07 0.01-0.14 0.01h-7.1q-0.12 0-0.23 0-0.11 0.01-0.22 0.03-0.12 0.01-0.23 0.03-0.11 0.02-0.22 0.05c-1.3 0.34-2.27 1.43-2.27 2.84v5.97c0 1.69 1.7 2.69 3.38 3.18 2 0.58 4.19 0.69 6.59 0 1.59-0.46 3.15-1.38 3.15-3.18v-1.97h-6.56v-0.94h8.69c1.73 0 3.22-1.46 3.96-3.59q0.12-0.36 0.21-0.73 0.09-0.36 0.15-0.74 0.06-0.37 0.09-0.75 0.03-0.37 0.02-0.75 0.01-0.29-0.01-0.58-0.02-0.28-0.05-0.57-0.04-0.29-0.09-0.57-0.05-0.29-0.12-0.57zm-9.3 10.96c0.48 0 0.92 0.29 1.1 0.74 0.19 0.44 0.09 0.96-0.26 1.3-0.34 0.34-0.85 0.44-1.3 0.26-0.45-0.19-0.74-0.63-0.73-1.11q0-0.24 0.09-0.45 0.09-0.22 0.25-0.39 0.17-0.17 0.39-0.26 0.22-0.09 0.46-0.09z"/>
</svg>