<svg version="1.2" xmlns="http://www.w3.org/2000/svg" viewBox="0 0 30 30" width="30" height="30">
	<style>
		.s0 { fill: #000000 } 
	</style>
	<path class="s0" d="m1.88 1.88v26.25h26.25v-26.25zm14.06 20.39c0 2.55-1.51 3.8-3.7 3.8-1.97 0-3.12-1.03-3.7-2.26l2.01-1.21c0.39 0.68 0.68 1.26 1.53 1.26 0.7 0 1.28-0.31 1.28-1.55v-8.25h2.58zm5.82 3.74c-2.29 0-3.77-1.03-4.49-2.46l2.01-1.16c0.52 0.86 1.21 1.44 2.43 1.44 1.02 0 1.61-0.45 1.61-1.16 0-0.84-0.61-1.14-1.73-1.64l-0.62-0.26c-1.78-0.76-2.96-1.71-2.96-3.72 0-1.85 1.41-3.2 3.61-3.2 1.57 0 2.7 0.48 3.51 1.91l-1.93 1.24c-0.42-0.76-0.88-1.06-1.58-1.06-0.72 0-1.18 0.46-1.18 1.06 0 0.74 0.46 1.04 1.51 1.5l0.62 0.26c2.1 0.9 3.28 1.82 3.28 3.88 0 2.22-1.75 3.37-4.09 3.37z"/>
</svg>