<svg version="1.2" xmlns="http://www.w3.org/2000/svg" viewBox="0 0 50 50" width="50" height="50">
	<style>
		.s0 { fill: none;stroke: #000000;stroke-linecap: round;stroke-linejoin: round;stroke-width: 3.1 } 
	</style>
	<path class="s0" d="m37.2 5.6q-0.22-0.22-0.47-0.39-0.26-0.17-0.54-0.28-0.29-0.12-0.59-0.18-0.3-0.06-0.61-0.06h-25.79q-0.9 0-1.73 0.34-0.82 0.35-1.46 0.98-0.63 0.64-0.98 1.46-0.34 0.83-0.34 1.73v31.6q0 0.9 0.34 1.73 0.35 0.82 0.98 1.46 0.64 0.63 1.46 0.98 0.83 0.34 1.73 0.34h31.6q0.9 0 1.72-0.34 0.83-0.35 1.47-0.98 0.63-0.64 0.98-1.47 0.34-0.82 0.34-1.72v-25.79q0-0.31-0.06-0.61-0.06-0.3-0.18-0.59-0.11-0.28-0.28-0.54-0.17-0.25-0.39-0.47zm-12.2 35.02c-2.53 0-4.81-1.52-5.78-3.86-0.96-2.33-0.43-5.02 1.36-6.81 1.79-1.78 4.47-2.32 6.81-1.35 2.33 0.97 3.86 3.24 3.86 5.77q0 1.25-0.48 2.4-0.47 1.14-1.35 2.02-0.88 0.88-2.03 1.36-1.15 0.47-2.39 0.47zm4.68-21.87h-18.75q-0.31 0-0.59-0.12-0.29-0.12-0.51-0.34-0.22-0.22-0.34-0.51-0.12-0.28-0.12-0.6v-6.25q0-0.31 0.12-0.59 0.12-0.29 0.34-0.51 0.22-0.22 0.51-0.34 0.28-0.12 0.59-0.12h18.75q0.32 0 0.6 0.12 0.29 0.12 0.51 0.34 0.22 0.22 0.34 0.51 0.12 0.28 0.12 0.59v6.25q0 0.32-0.12 0.6-0.12 0.29-0.34 0.51-0.22 0.22-0.51 0.34-0.28 0.12-0.6 0.12z"/>
</svg>