<svg version="1.2" xmlns="http://www.w3.org/2000/svg" viewBox="0 0 512 512" width="512" height="512">
	<style>
		.s0 { fill: none;stroke: #000000;stroke-linecap: round;stroke-miterlimit:10;stroke-width: 32 } 
		.s1 { fill: none;stroke: #000000;stroke-linecap: round;stroke-linejoin: round;stroke-width: 32 } 
	</style>
	<path class="s0" d="m436.67 184.11c-2.52 2.5-5.51 4.49-8.79 5.84-3.29 1.36-6.81 2.06-10.36 2.06-3.55 0-7.07-0.7-10.36-2.06-3.28-1.35-6.27-3.34-8.79-5.84l-22.48-22.49c-2.51-2.52-4.49-5.51-5.85-8.79-1.35-3.28-2.05-6.8-2.05-10.35 0-3.56 0.7-7.08 2.05-10.36 1.36-3.28 3.34-6.27 5.85-8.79l50.89-50.89q0.15-0.15 0.21-0.35 0.06-0.2 0.02-0.41-0.04-0.21-0.17-0.37-0.13-0.16-0.32-0.25c-32.84-14.06-75.43-6.91-102.47 19.94-25.88 25.69-27.35 64.27-17.87 98 0.67 2.38 1.01 4.85 1.01 7.33 0 2.47-0.35 4.94-1.02 7.32-0.67 2.38-1.67 4.66-2.97 6.78-1.29 2.11-2.87 4.03-4.69 5.71l-173 160.76c-8.35 7.47-13.25 18.05-13.55 29.25-0.31 11.2 4 22.03 11.93 29.94 7.92 7.92 18.75 12.23 29.95 11.92 11.2-0.31 21.77-5.22 29.24-13.57l162.15-173.3c1.66-1.79 3.56-3.34 5.64-4.62 2.08-1.28 4.33-2.27 6.68-2.95 2.34-0.67 4.77-1.03 7.21-1.05 2.45-0.02 4.88 0.29 7.24 0.92 33.46 8.94 71.49 7.26 97.07-17.94 27.49-27.08 33.42-74.94 20.1-102.33q-0.09-0.18-0.26-0.3-0.16-0.12-0.36-0.16-0.21-0.03-0.4 0.03-0.19 0.07-0.34 0.21z"/>
	<path class="s1" d="m224 284c-17.48-17-25.49-24.91-31-30.29-1.37-1.36-2.52-2.93-3.39-4.65-0.88-1.72-1.48-3.57-1.78-5.48-0.29-1.91-0.29-3.85 0.02-5.76 0.32-1.9 0.93-3.75 1.82-5.46q0.35-0.64 0.75-1.24 0.4-0.61 0.84-1.19 0.44-0.58 0.92-1.13 0.47-0.55 0.99-1.06l15.68-15.29q0.61-0.61 1.27-1.16 0.66-0.55 1.37-1.03 0.7-0.49 1.45-0.91 0.75-0.42 1.54-0.77 2.49-1.1 5.18-1.42 2.7-0.32 5.38 0.16 2.67 0.49 5.08 1.73 2.42 1.25 4.36 3.15c5.45 5.29 15.43 15 33.41 32.52m49.18 46.58c40.95 38.1 90.62 83.27 110 99.41 1.45 1.19 2.63 2.68 3.47 4.36 0.84 1.68 1.33 3.52 1.41 5.39 0.09 1.88-0.21 3.75-0.89 5.5-0.68 1.75-1.72 3.34-3.05 4.67l-33.38 33.37c-1.36 1.33-2.97 2.36-4.75 3.05-1.77 0.68-3.66 1-5.56 0.93-1.9-0.07-3.76-0.53-5.48-1.35-1.71-0.81-3.24-1.96-4.5-3.39-16.53-19.18-61.09-67.11-99.27-107"/>
	<path class="s1" d="m17.34 193.5l29.41-28.74q0.34-0.33 0.73-0.59 0.4-0.26 0.84-0.43 0.44-0.17 0.9-0.26 0.47-0.08 0.94-0.07 0.47 0 0.94 0.08 0.46 0.09 0.9 0.26 0.44 0.17 0.83 0.43 0.4 0.25 0.74 0.58 0.8 0.79 1.75 1.38 0.96 0.59 2.03 0.95 1.06 0.36 2.18 0.47 1.12 0.11 2.23-0.03c3.83-0.42 7.92-1.6 10.57-4.12 6-5.8-0.94-17.23 4.34-24.54q2.26-3 4.63-5.92 2.37-2.91 4.85-5.74 2.47-2.83 5.05-5.56 2.58-2.74 5.25-5.38c6-5.88 29.84-28.32 69.9-44.45q4.79-1.94 9.75-3.41 4.96-1.46 10.03-2.45 5.08-0.98 10.22-1.47 5.15-0.49 10.32-0.49c22.59 0 40 10 46.26 15.67q1.41 1.34 2.76 2.74 1.35 1.4 2.63 2.86 1.29 1.45 2.51 2.97 1.22 1.51 2.38 3.07-1.13-0.42-2.27-0.8-1.14-0.38-2.29-0.73-1.15-0.34-2.32-0.65-1.16-0.31-2.33-0.59-2.46-0.52-4.95-0.86-2.49-0.34-5-0.5-2.51-0.16-5.03-0.13-2.51 0.02-5.02 0.23c-13.33 1.09-29.41 7.26-38 14-13.9 11-19.87 25.72-20.81 44.71-0.68 14.12 2.72 22.1 36.1 55.49q0.85 0.96 1.29 2.16 0.43 1.21 0.39 2.49-0.05 1.28-0.57 2.45-0.53 1.17-1.45 2.06l-18.22 18q-0.95 0.93-2.19 1.44-1.23 0.51-2.56 0.53-1.34 0.01-2.58-0.48-1.24-0.49-2.21-1.4c-21.94-21.94-36.65-33.09-45-38.16-8.35-5.07-15.07-6.5-18.3-6.85q-2.36-0.23-4.74-0.1-2.37 0.13-4.69 0.62-2.33 0.49-4.55 1.33-2.22 0.85-4.29 2.02-0.36 0.2-0.71 0.43-0.35 0.22-0.68 0.47-0.33 0.25-0.65 0.53-0.31 0.27-0.6 0.57c-1.3 1.34-2.32 2.93-3 4.67-0.68 1.73-1.01 3.59-0.97 5.46 0.03 1.86 0.44 3.71 1.2 5.41 0.75 1.71 1.84 3.25 3.19 4.54l1.71 1.6q0.67 0.65 1.04 1.52 0.36 0.86 0.36 1.8 0 0.94-0.36 1.8-0.37 0.87-1.04 1.52l-29.38 28.69q-0.33 0.34-0.73 0.6-0.39 0.27-0.83 0.45-0.44 0.18-0.91 0.27-0.47 0.09-0.94 0.08-0.47 0-0.94-0.08-0.46-0.09-0.9-0.26-0.44-0.17-0.83-0.43-0.4-0.25-0.74-0.58l-47.57-46.43q-0.64-0.68-0.99-1.55-0.35-0.87-0.35-1.81 0-0.94 0.35-1.81 0.35-0.87 0.99-1.55z"/>
</svg>